<mxfile host="app.diagrams.net" modified="2024-02-26T13:16:04.861Z" agent="Mozilla/5.0 (Macintosh; Intel Mac OS X 10_15_7) AppleWebKit/537.36 (KHTML, like Gecko) Chrome/120.0.0.0 Safari/537.36" etag="MKHu4H3m9y53W8WB3pWW" version="23.1.6" type="device">
  <diagram name="Page-1" id="B9apPHocFtDQIy3SLxMK">
    <mxGraphModel dx="2074" dy="1155" grid="1" gridSize="10" guides="1" tooltips="1" connect="1" arrows="1" fold="1" page="1" pageScale="1" pageWidth="827" pageHeight="1169" math="0" shadow="0">
      <root>
        <mxCell id="0" />
        <mxCell id="1" parent="0" />
        <mxCell id="ucMxjGurkrP4E1wEQYcj-1" value="AWS Account" style="points=[[0,0],[0.25,0],[0.5,0],[0.75,0],[1,0],[1,0.25],[1,0.5],[1,0.75],[1,1],[0.75,1],[0.5,1],[0.25,1],[0,1],[0,0.75],[0,0.5],[0,0.25]];outlineConnect=0;gradientColor=none;html=1;whiteSpace=wrap;fontSize=12;fontStyle=0;container=1;pointerEvents=0;collapsible=0;recursiveResize=0;shape=mxgraph.aws4.group;grIcon=mxgraph.aws4.group_account;strokeColor=#CD2264;fillColor=none;verticalAlign=top;align=left;spacingLeft=30;fontColor=#CD2264;dashed=0;" vertex="1" parent="1">
          <mxGeometry x="40" y="80" width="1840" height="1040" as="geometry" />
        </mxCell>
        <mxCell id="ucMxjGurkrP4E1wEQYcj-2" value="US Region" style="points=[[0,0],[0.25,0],[0.5,0],[0.75,0],[1,0],[1,0.25],[1,0.5],[1,0.75],[1,1],[0.75,1],[0.5,1],[0.25,1],[0,1],[0,0.75],[0,0.5],[0,0.25]];outlineConnect=0;gradientColor=none;html=1;whiteSpace=wrap;fontSize=12;fontStyle=0;container=1;pointerEvents=0;collapsible=0;recursiveResize=0;shape=mxgraph.aws4.group;grIcon=mxgraph.aws4.group_region;strokeColor=#00A4A6;fillColor=none;verticalAlign=top;align=left;spacingLeft=30;fontColor=#147EBA;dashed=1;" vertex="1" parent="ucMxjGurkrP4E1wEQYcj-1">
          <mxGeometry x="40" y="40" width="560" height="680" as="geometry" />
        </mxCell>
        <mxCell id="ucMxjGurkrP4E1wEQYcj-61" value="VPC" style="points=[[0,0],[0.25,0],[0.5,0],[0.75,0],[1,0],[1,0.25],[1,0.5],[1,0.75],[1,1],[0.75,1],[0.5,1],[0.25,1],[0,1],[0,0.75],[0,0.5],[0,0.25]];outlineConnect=0;gradientColor=none;html=1;whiteSpace=wrap;fontSize=12;fontStyle=0;container=1;pointerEvents=0;collapsible=0;recursiveResize=0;shape=mxgraph.aws4.group;grIcon=mxgraph.aws4.group_vpc2;strokeColor=#8C4FFF;fillColor=none;verticalAlign=top;align=left;spacingLeft=30;fontColor=#AAB7B8;dashed=0;" vertex="1" parent="ucMxjGurkrP4E1wEQYcj-2">
          <mxGeometry x="10" y="40" width="540" height="620" as="geometry" />
        </mxCell>
        <mxCell id="ucMxjGurkrP4E1wEQYcj-66" value="Private subnet" style="points=[[0,0],[0.25,0],[0.5,0],[0.75,0],[1,0],[1,0.25],[1,0.5],[1,0.75],[1,1],[0.75,1],[0.5,1],[0.25,1],[0,1],[0,0.75],[0,0.5],[0,0.25]];outlineConnect=0;gradientColor=none;html=1;whiteSpace=wrap;fontSize=12;fontStyle=0;container=1;pointerEvents=0;collapsible=0;recursiveResize=0;shape=mxgraph.aws4.group;grIcon=mxgraph.aws4.group_security_group;grStroke=0;strokeColor=#00A4A6;fillColor=#E6F6F7;verticalAlign=top;align=left;spacingLeft=30;fontColor=#147EBA;dashed=0;" vertex="1" parent="ucMxjGurkrP4E1wEQYcj-61">
          <mxGeometry x="30" y="290" width="480" height="150" as="geometry" />
        </mxCell>
        <mxCell id="ucMxjGurkrP4E1wEQYcj-67" value="Public subnet" style="points=[[0,0],[0.25,0],[0.5,0],[0.75,0],[1,0],[1,0.25],[1,0.5],[1,0.75],[1,1],[0.75,1],[0.5,1],[0.25,1],[0,1],[0,0.75],[0,0.5],[0,0.25]];outlineConnect=0;gradientColor=none;html=1;whiteSpace=wrap;fontSize=12;fontStyle=0;container=1;pointerEvents=0;collapsible=0;recursiveResize=0;shape=mxgraph.aws4.group;grIcon=mxgraph.aws4.group_security_group;grStroke=0;strokeColor=#7AA116;fillColor=#F2F6E8;verticalAlign=top;align=left;spacingLeft=30;fontColor=#248814;dashed=0;" vertex="1" parent="ucMxjGurkrP4E1wEQYcj-61">
          <mxGeometry x="30" y="120" width="480" height="150" as="geometry" />
        </mxCell>
        <mxCell id="ucMxjGurkrP4E1wEQYcj-64" value="Availability Zone" style="fillColor=none;strokeColor=#147EBA;dashed=1;verticalAlign=top;fontStyle=0;fontColor=#147EBA;whiteSpace=wrap;html=1;" vertex="1" parent="ucMxjGurkrP4E1wEQYcj-61">
          <mxGeometry x="20" y="90" width="220" height="380" as="geometry" />
        </mxCell>
        <mxCell id="ucMxjGurkrP4E1wEQYcj-68" value="Availability Zone" style="fillColor=none;strokeColor=#147EBA;dashed=1;verticalAlign=top;fontStyle=0;fontColor=#147EBA;whiteSpace=wrap;html=1;" vertex="1" parent="ucMxjGurkrP4E1wEQYcj-61">
          <mxGeometry x="300" y="90" width="220" height="380" as="geometry" />
        </mxCell>
        <mxCell id="ucMxjGurkrP4E1wEQYcj-69" value="" style="outlineConnect=0;dashed=0;verticalLabelPosition=bottom;verticalAlign=top;align=center;html=1;shape=mxgraph.aws3.internet_gateway;fillColor=#F58536;gradientColor=none;" vertex="1" parent="ucMxjGurkrP4E1wEQYcj-61">
          <mxGeometry x="471" width="69" height="72" as="geometry" />
        </mxCell>
        <mxCell id="ucMxjGurkrP4E1wEQYcj-98" style="edgeStyle=orthogonalEdgeStyle;rounded=0;orthogonalLoop=1;jettySize=auto;html=1;" edge="1" parent="ucMxjGurkrP4E1wEQYcj-61" source="ucMxjGurkrP4E1wEQYcj-72" target="ucMxjGurkrP4E1wEQYcj-74">
          <mxGeometry relative="1" as="geometry">
            <Array as="points">
              <mxPoint x="210" y="159" />
              <mxPoint x="210" y="365" />
            </Array>
          </mxGeometry>
        </mxCell>
        <mxCell id="ucMxjGurkrP4E1wEQYcj-99" style="edgeStyle=orthogonalEdgeStyle;rounded=0;orthogonalLoop=1;jettySize=auto;html=1;" edge="1" parent="ucMxjGurkrP4E1wEQYcj-61" source="ucMxjGurkrP4E1wEQYcj-72" target="ucMxjGurkrP4E1wEQYcj-75">
          <mxGeometry relative="1" as="geometry">
            <Array as="points">
              <mxPoint x="330" y="159" />
              <mxPoint x="330" y="365" />
            </Array>
          </mxGeometry>
        </mxCell>
        <mxCell id="ucMxjGurkrP4E1wEQYcj-72" value="" style="sketch=0;outlineConnect=0;fontColor=#232F3E;gradientColor=none;fillColor=#8C4FFF;strokeColor=none;dashed=0;verticalLabelPosition=bottom;verticalAlign=top;align=center;html=1;fontSize=12;fontStyle=0;aspect=fixed;pointerEvents=1;shape=mxgraph.aws4.application_load_balancer;" vertex="1" parent="ucMxjGurkrP4E1wEQYcj-61">
          <mxGeometry x="231" y="120" width="78" height="78" as="geometry" />
        </mxCell>
        <mxCell id="ucMxjGurkrP4E1wEQYcj-73" value="" style="sketch=0;outlineConnect=0;fontColor=#232F3E;gradientColor=none;fillColor=#8C4FFF;strokeColor=none;dashed=0;verticalLabelPosition=bottom;verticalAlign=top;align=center;html=1;fontSize=12;fontStyle=0;aspect=fixed;pointerEvents=1;shape=mxgraph.aws4.nat_gateway;" vertex="1" parent="ucMxjGurkrP4E1wEQYcj-61">
          <mxGeometry x="30" y="190" width="78" height="78" as="geometry" />
        </mxCell>
        <mxCell id="ucMxjGurkrP4E1wEQYcj-104" style="edgeStyle=orthogonalEdgeStyle;rounded=0;orthogonalLoop=1;jettySize=auto;html=1;" edge="1" parent="ucMxjGurkrP4E1wEQYcj-61" source="ucMxjGurkrP4E1wEQYcj-74" target="ucMxjGurkrP4E1wEQYcj-73">
          <mxGeometry relative="1" as="geometry">
            <Array as="points">
              <mxPoint x="130" y="230" />
            </Array>
          </mxGeometry>
        </mxCell>
        <mxCell id="ucMxjGurkrP4E1wEQYcj-74" value="" style="sketch=0;points=[[0,0,0],[0.25,0,0],[0.5,0,0],[0.75,0,0],[1,0,0],[0,1,0],[0.25,1,0],[0.5,1,0],[0.75,1,0],[1,1,0],[0,0.25,0],[0,0.5,0],[0,0.75,0],[1,0.25,0],[1,0.5,0],[1,0.75,0]];outlineConnect=0;fontColor=#232F3E;fillColor=#ED7100;strokeColor=#ffffff;dashed=0;verticalLabelPosition=bottom;verticalAlign=top;align=center;html=1;fontSize=12;fontStyle=0;aspect=fixed;shape=mxgraph.aws4.resourceIcon;resIcon=mxgraph.aws4.ec2;" vertex="1" parent="ucMxjGurkrP4E1wEQYcj-61">
          <mxGeometry x="91" y="326" width="78" height="78" as="geometry" />
        </mxCell>
        <mxCell id="ucMxjGurkrP4E1wEQYcj-105" style="edgeStyle=orthogonalEdgeStyle;rounded=0;orthogonalLoop=1;jettySize=auto;html=1;" edge="1" parent="ucMxjGurkrP4E1wEQYcj-61" source="ucMxjGurkrP4E1wEQYcj-75">
          <mxGeometry relative="1" as="geometry">
            <mxPoint x="110" y="230" as="targetPoint" />
            <Array as="points">
              <mxPoint x="410" y="230" />
            </Array>
          </mxGeometry>
        </mxCell>
        <mxCell id="ucMxjGurkrP4E1wEQYcj-75" value="" style="sketch=0;points=[[0,0,0],[0.25,0,0],[0.5,0,0],[0.75,0,0],[1,0,0],[0,1,0],[0.25,1,0],[0.5,1,0],[0.75,1,0],[1,1,0],[0,0.25,0],[0,0.5,0],[0,0.75,0],[1,0.25,0],[1,0.5,0],[1,0.75,0]];outlineConnect=0;fontColor=#232F3E;fillColor=#ED7100;strokeColor=#ffffff;dashed=0;verticalLabelPosition=bottom;verticalAlign=top;align=center;html=1;fontSize=12;fontStyle=0;aspect=fixed;shape=mxgraph.aws4.resourceIcon;resIcon=mxgraph.aws4.ec2;" vertex="1" parent="ucMxjGurkrP4E1wEQYcj-61">
          <mxGeometry x="371" y="326" width="78" height="78" as="geometry" />
        </mxCell>
        <mxCell id="ucMxjGurkrP4E1wEQYcj-6" value="EU Region" style="points=[[0,0],[0.25,0],[0.5,0],[0.75,0],[1,0],[1,0.25],[1,0.5],[1,0.75],[1,1],[0.75,1],[0.5,1],[0.25,1],[0,1],[0,0.75],[0,0.5],[0,0.25]];outlineConnect=0;gradientColor=none;html=1;whiteSpace=wrap;fontSize=12;fontStyle=0;container=1;pointerEvents=0;collapsible=0;recursiveResize=0;shape=mxgraph.aws4.group;grIcon=mxgraph.aws4.group_region;strokeColor=#00A4A6;fillColor=none;verticalAlign=top;align=left;spacingLeft=30;fontColor=#147EBA;dashed=1;" vertex="1" parent="ucMxjGurkrP4E1wEQYcj-1">
          <mxGeometry x="641" y="40" width="560" height="680" as="geometry" />
        </mxCell>
        <mxCell id="ucMxjGurkrP4E1wEQYcj-62" value="VPC" style="points=[[0,0],[0.25,0],[0.5,0],[0.75,0],[1,0],[1,0.25],[1,0.5],[1,0.75],[1,1],[0.75,1],[0.5,1],[0.25,1],[0,1],[0,0.75],[0,0.5],[0,0.25]];outlineConnect=0;gradientColor=none;html=1;whiteSpace=wrap;fontSize=12;fontStyle=0;container=1;pointerEvents=0;collapsible=0;recursiveResize=0;shape=mxgraph.aws4.group;grIcon=mxgraph.aws4.group_vpc2;strokeColor=#8C4FFF;fillColor=none;verticalAlign=top;align=left;spacingLeft=30;fontColor=#AAB7B8;dashed=0;" vertex="1" parent="ucMxjGurkrP4E1wEQYcj-6">
          <mxGeometry x="9" y="40" width="540" height="620" as="geometry" />
        </mxCell>
        <mxCell id="ucMxjGurkrP4E1wEQYcj-70" value="" style="outlineConnect=0;dashed=0;verticalLabelPosition=bottom;verticalAlign=top;align=center;html=1;shape=mxgraph.aws3.internet_gateway;fillColor=#F58536;gradientColor=none;" vertex="1" parent="ucMxjGurkrP4E1wEQYcj-62">
          <mxGeometry x="471" width="69" height="72" as="geometry" />
        </mxCell>
        <mxCell id="ucMxjGurkrP4E1wEQYcj-76" value="Private subnet" style="points=[[0,0],[0.25,0],[0.5,0],[0.75,0],[1,0],[1,0.25],[1,0.5],[1,0.75],[1,1],[0.75,1],[0.5,1],[0.25,1],[0,1],[0,0.75],[0,0.5],[0,0.25]];outlineConnect=0;gradientColor=none;html=1;whiteSpace=wrap;fontSize=12;fontStyle=0;container=1;pointerEvents=0;collapsible=0;recursiveResize=0;shape=mxgraph.aws4.group;grIcon=mxgraph.aws4.group_security_group;grStroke=0;strokeColor=#00A4A6;fillColor=#E6F6F7;verticalAlign=top;align=left;spacingLeft=30;fontColor=#147EBA;dashed=0;" vertex="1" parent="ucMxjGurkrP4E1wEQYcj-62">
          <mxGeometry x="30" y="290" width="480" height="150" as="geometry" />
        </mxCell>
        <mxCell id="ucMxjGurkrP4E1wEQYcj-77" value="Public subnet" style="points=[[0,0],[0.25,0],[0.5,0],[0.75,0],[1,0],[1,0.25],[1,0.5],[1,0.75],[1,1],[0.75,1],[0.5,1],[0.25,1],[0,1],[0,0.75],[0,0.5],[0,0.25]];outlineConnect=0;gradientColor=none;html=1;whiteSpace=wrap;fontSize=12;fontStyle=0;container=1;pointerEvents=0;collapsible=0;recursiveResize=0;shape=mxgraph.aws4.group;grIcon=mxgraph.aws4.group_security_group;grStroke=0;strokeColor=#7AA116;fillColor=#F2F6E8;verticalAlign=top;align=left;spacingLeft=30;fontColor=#248814;dashed=0;" vertex="1" parent="ucMxjGurkrP4E1wEQYcj-62">
          <mxGeometry x="30" y="120" width="480" height="150" as="geometry" />
        </mxCell>
        <mxCell id="ucMxjGurkrP4E1wEQYcj-78" value="Availability Zone" style="fillColor=none;strokeColor=#147EBA;dashed=1;verticalAlign=top;fontStyle=0;fontColor=#147EBA;whiteSpace=wrap;html=1;" vertex="1" parent="ucMxjGurkrP4E1wEQYcj-62">
          <mxGeometry x="20" y="90" width="220" height="380" as="geometry" />
        </mxCell>
        <mxCell id="ucMxjGurkrP4E1wEQYcj-79" value="Availability Zone" style="fillColor=none;strokeColor=#147EBA;dashed=1;verticalAlign=top;fontStyle=0;fontColor=#147EBA;whiteSpace=wrap;html=1;" vertex="1" parent="ucMxjGurkrP4E1wEQYcj-62">
          <mxGeometry x="300" y="90" width="220" height="380" as="geometry" />
        </mxCell>
        <mxCell id="ucMxjGurkrP4E1wEQYcj-80" value="" style="sketch=0;outlineConnect=0;fontColor=#232F3E;gradientColor=none;fillColor=#8C4FFF;strokeColor=none;dashed=0;verticalLabelPosition=bottom;verticalAlign=top;align=center;html=1;fontSize=12;fontStyle=0;aspect=fixed;pointerEvents=1;shape=mxgraph.aws4.application_load_balancer;" vertex="1" parent="ucMxjGurkrP4E1wEQYcj-62">
          <mxGeometry x="231" y="120" width="78" height="78" as="geometry" />
        </mxCell>
        <mxCell id="ucMxjGurkrP4E1wEQYcj-81" value="" style="sketch=0;outlineConnect=0;fontColor=#232F3E;gradientColor=none;fillColor=#8C4FFF;strokeColor=none;dashed=0;verticalLabelPosition=bottom;verticalAlign=top;align=center;html=1;fontSize=12;fontStyle=0;aspect=fixed;pointerEvents=1;shape=mxgraph.aws4.nat_gateway;" vertex="1" parent="ucMxjGurkrP4E1wEQYcj-62">
          <mxGeometry x="30" y="190" width="78" height="78" as="geometry" />
        </mxCell>
        <mxCell id="ucMxjGurkrP4E1wEQYcj-106" style="edgeStyle=orthogonalEdgeStyle;rounded=0;orthogonalLoop=1;jettySize=auto;html=1;" edge="1" parent="ucMxjGurkrP4E1wEQYcj-62" source="ucMxjGurkrP4E1wEQYcj-82" target="ucMxjGurkrP4E1wEQYcj-81">
          <mxGeometry relative="1" as="geometry">
            <Array as="points">
              <mxPoint x="130" y="230" />
            </Array>
          </mxGeometry>
        </mxCell>
        <mxCell id="ucMxjGurkrP4E1wEQYcj-82" value="" style="sketch=0;points=[[0,0,0],[0.25,0,0],[0.5,0,0],[0.75,0,0],[1,0,0],[0,1,0],[0.25,1,0],[0.5,1,0],[0.75,1,0],[1,1,0],[0,0.25,0],[0,0.5,0],[0,0.75,0],[1,0.25,0],[1,0.5,0],[1,0.75,0]];outlineConnect=0;fontColor=#232F3E;fillColor=#ED7100;strokeColor=#ffffff;dashed=0;verticalLabelPosition=bottom;verticalAlign=top;align=center;html=1;fontSize=12;fontStyle=0;aspect=fixed;shape=mxgraph.aws4.resourceIcon;resIcon=mxgraph.aws4.ec2;" vertex="1" parent="ucMxjGurkrP4E1wEQYcj-62">
          <mxGeometry x="91" y="326" width="78" height="78" as="geometry" />
        </mxCell>
        <mxCell id="ucMxjGurkrP4E1wEQYcj-107" style="edgeStyle=orthogonalEdgeStyle;rounded=0;orthogonalLoop=1;jettySize=auto;html=1;" edge="1" parent="ucMxjGurkrP4E1wEQYcj-62" source="ucMxjGurkrP4E1wEQYcj-83">
          <mxGeometry relative="1" as="geometry">
            <mxPoint x="110" y="230" as="targetPoint" />
            <Array as="points">
              <mxPoint x="410" y="230" />
            </Array>
          </mxGeometry>
        </mxCell>
        <mxCell id="ucMxjGurkrP4E1wEQYcj-83" value="" style="sketch=0;points=[[0,0,0],[0.25,0,0],[0.5,0,0],[0.75,0,0],[1,0,0],[0,1,0],[0.25,1,0],[0.5,1,0],[0.75,1,0],[1,1,0],[0,0.25,0],[0,0.5,0],[0,0.75,0],[1,0.25,0],[1,0.5,0],[1,0.75,0]];outlineConnect=0;fontColor=#232F3E;fillColor=#ED7100;strokeColor=#ffffff;dashed=0;verticalLabelPosition=bottom;verticalAlign=top;align=center;html=1;fontSize=12;fontStyle=0;aspect=fixed;shape=mxgraph.aws4.resourceIcon;resIcon=mxgraph.aws4.ec2;" vertex="1" parent="ucMxjGurkrP4E1wEQYcj-62">
          <mxGeometry x="371" y="326" width="78" height="78" as="geometry" />
        </mxCell>
        <mxCell id="ucMxjGurkrP4E1wEQYcj-100" style="edgeStyle=orthogonalEdgeStyle;rounded=0;orthogonalLoop=1;jettySize=auto;html=1;entryX=1;entryY=0.5;entryDx=0;entryDy=0;entryPerimeter=0;" edge="1" parent="ucMxjGurkrP4E1wEQYcj-62" source="ucMxjGurkrP4E1wEQYcj-80" target="ucMxjGurkrP4E1wEQYcj-82">
          <mxGeometry relative="1" as="geometry" />
        </mxCell>
        <mxCell id="ucMxjGurkrP4E1wEQYcj-101" style="edgeStyle=orthogonalEdgeStyle;rounded=0;orthogonalLoop=1;jettySize=auto;html=1;entryX=0;entryY=0.5;entryDx=0;entryDy=0;entryPerimeter=0;" edge="1" parent="ucMxjGurkrP4E1wEQYcj-62" source="ucMxjGurkrP4E1wEQYcj-80" target="ucMxjGurkrP4E1wEQYcj-83">
          <mxGeometry relative="1" as="geometry" />
        </mxCell>
        <mxCell id="ucMxjGurkrP4E1wEQYcj-7" value="AU Region" style="points=[[0,0],[0.25,0],[0.5,0],[0.75,0],[1,0],[1,0.25],[1,0.5],[1,0.75],[1,1],[0.75,1],[0.5,1],[0.25,1],[0,1],[0,0.75],[0,0.5],[0,0.25]];outlineConnect=0;gradientColor=none;html=1;whiteSpace=wrap;fontSize=12;fontStyle=0;container=1;pointerEvents=0;collapsible=0;recursiveResize=0;shape=mxgraph.aws4.group;grIcon=mxgraph.aws4.group_region;strokeColor=#00A4A6;fillColor=none;verticalAlign=top;align=left;spacingLeft=30;fontColor=#147EBA;dashed=1;" vertex="1" parent="ucMxjGurkrP4E1wEQYcj-1">
          <mxGeometry x="1240" y="40" width="560" height="680" as="geometry" />
        </mxCell>
        <mxCell id="ucMxjGurkrP4E1wEQYcj-63" value="VPC" style="points=[[0,0],[0.25,0],[0.5,0],[0.75,0],[1,0],[1,0.25],[1,0.5],[1,0.75],[1,1],[0.75,1],[0.5,1],[0.25,1],[0,1],[0,0.75],[0,0.5],[0,0.25]];outlineConnect=0;gradientColor=none;html=1;whiteSpace=wrap;fontSize=12;fontStyle=0;container=1;pointerEvents=0;collapsible=0;recursiveResize=0;shape=mxgraph.aws4.group;grIcon=mxgraph.aws4.group_vpc2;strokeColor=#8C4FFF;fillColor=none;verticalAlign=top;align=left;spacingLeft=30;fontColor=#AAB7B8;dashed=0;" vertex="1" parent="ucMxjGurkrP4E1wEQYcj-7">
          <mxGeometry x="10" y="40" width="540" height="620" as="geometry" />
        </mxCell>
        <mxCell id="ucMxjGurkrP4E1wEQYcj-71" value="" style="outlineConnect=0;dashed=0;verticalLabelPosition=bottom;verticalAlign=top;align=center;html=1;shape=mxgraph.aws3.internet_gateway;fillColor=#F58536;gradientColor=none;" vertex="1" parent="ucMxjGurkrP4E1wEQYcj-63">
          <mxGeometry x="471" width="69" height="72" as="geometry" />
        </mxCell>
        <mxCell id="ucMxjGurkrP4E1wEQYcj-84" value="Private subnet" style="points=[[0,0],[0.25,0],[0.5,0],[0.75,0],[1,0],[1,0.25],[1,0.5],[1,0.75],[1,1],[0.75,1],[0.5,1],[0.25,1],[0,1],[0,0.75],[0,0.5],[0,0.25]];outlineConnect=0;gradientColor=none;html=1;whiteSpace=wrap;fontSize=12;fontStyle=0;container=1;pointerEvents=0;collapsible=0;recursiveResize=0;shape=mxgraph.aws4.group;grIcon=mxgraph.aws4.group_security_group;grStroke=0;strokeColor=#00A4A6;fillColor=#E6F6F7;verticalAlign=top;align=left;spacingLeft=30;fontColor=#147EBA;dashed=0;" vertex="1" parent="ucMxjGurkrP4E1wEQYcj-63">
          <mxGeometry x="30" y="290" width="480" height="150" as="geometry" />
        </mxCell>
        <mxCell id="ucMxjGurkrP4E1wEQYcj-85" value="Public subnet" style="points=[[0,0],[0.25,0],[0.5,0],[0.75,0],[1,0],[1,0.25],[1,0.5],[1,0.75],[1,1],[0.75,1],[0.5,1],[0.25,1],[0,1],[0,0.75],[0,0.5],[0,0.25]];outlineConnect=0;gradientColor=none;html=1;whiteSpace=wrap;fontSize=12;fontStyle=0;container=1;pointerEvents=0;collapsible=0;recursiveResize=0;shape=mxgraph.aws4.group;grIcon=mxgraph.aws4.group_security_group;grStroke=0;strokeColor=#7AA116;fillColor=#F2F6E8;verticalAlign=top;align=left;spacingLeft=30;fontColor=#248814;dashed=0;" vertex="1" parent="ucMxjGurkrP4E1wEQYcj-63">
          <mxGeometry x="30" y="120" width="480" height="150" as="geometry" />
        </mxCell>
        <mxCell id="ucMxjGurkrP4E1wEQYcj-86" value="Availability Zone" style="fillColor=none;strokeColor=#147EBA;dashed=1;verticalAlign=top;fontStyle=0;fontColor=#147EBA;whiteSpace=wrap;html=1;" vertex="1" parent="ucMxjGurkrP4E1wEQYcj-63">
          <mxGeometry x="20" y="90" width="220" height="380" as="geometry" />
        </mxCell>
        <mxCell id="ucMxjGurkrP4E1wEQYcj-87" value="Availability Zone" style="fillColor=none;strokeColor=#147EBA;dashed=1;verticalAlign=top;fontStyle=0;fontColor=#147EBA;whiteSpace=wrap;html=1;" vertex="1" parent="ucMxjGurkrP4E1wEQYcj-63">
          <mxGeometry x="300" y="90" width="220" height="380" as="geometry" />
        </mxCell>
        <mxCell id="ucMxjGurkrP4E1wEQYcj-88" value="" style="sketch=0;outlineConnect=0;fontColor=#232F3E;gradientColor=none;fillColor=#8C4FFF;strokeColor=none;dashed=0;verticalLabelPosition=bottom;verticalAlign=top;align=center;html=1;fontSize=12;fontStyle=0;aspect=fixed;pointerEvents=1;shape=mxgraph.aws4.application_load_balancer;" vertex="1" parent="ucMxjGurkrP4E1wEQYcj-63">
          <mxGeometry x="231" y="120" width="78" height="78" as="geometry" />
        </mxCell>
        <mxCell id="ucMxjGurkrP4E1wEQYcj-89" value="" style="sketch=0;outlineConnect=0;fontColor=#232F3E;gradientColor=none;fillColor=#8C4FFF;strokeColor=none;dashed=0;verticalLabelPosition=bottom;verticalAlign=top;align=center;html=1;fontSize=12;fontStyle=0;aspect=fixed;pointerEvents=1;shape=mxgraph.aws4.nat_gateway;" vertex="1" parent="ucMxjGurkrP4E1wEQYcj-63">
          <mxGeometry x="30" y="190" width="78" height="78" as="geometry" />
        </mxCell>
        <mxCell id="ucMxjGurkrP4E1wEQYcj-108" style="edgeStyle=orthogonalEdgeStyle;rounded=0;orthogonalLoop=1;jettySize=auto;html=1;" edge="1" parent="ucMxjGurkrP4E1wEQYcj-63" source="ucMxjGurkrP4E1wEQYcj-90" target="ucMxjGurkrP4E1wEQYcj-89">
          <mxGeometry relative="1" as="geometry">
            <Array as="points">
              <mxPoint x="130" y="230" />
            </Array>
          </mxGeometry>
        </mxCell>
        <mxCell id="ucMxjGurkrP4E1wEQYcj-90" value="" style="sketch=0;points=[[0,0,0],[0.25,0,0],[0.5,0,0],[0.75,0,0],[1,0,0],[0,1,0],[0.25,1,0],[0.5,1,0],[0.75,1,0],[1,1,0],[0,0.25,0],[0,0.5,0],[0,0.75,0],[1,0.25,0],[1,0.5,0],[1,0.75,0]];outlineConnect=0;fontColor=#232F3E;fillColor=#ED7100;strokeColor=#ffffff;dashed=0;verticalLabelPosition=bottom;verticalAlign=top;align=center;html=1;fontSize=12;fontStyle=0;aspect=fixed;shape=mxgraph.aws4.resourceIcon;resIcon=mxgraph.aws4.ec2;" vertex="1" parent="ucMxjGurkrP4E1wEQYcj-63">
          <mxGeometry x="91" y="326" width="78" height="78" as="geometry" />
        </mxCell>
        <mxCell id="ucMxjGurkrP4E1wEQYcj-109" style="edgeStyle=orthogonalEdgeStyle;rounded=0;orthogonalLoop=1;jettySize=auto;html=1;" edge="1" parent="ucMxjGurkrP4E1wEQYcj-63" source="ucMxjGurkrP4E1wEQYcj-91" target="ucMxjGurkrP4E1wEQYcj-89">
          <mxGeometry relative="1" as="geometry">
            <Array as="points">
              <mxPoint x="410" y="230" />
            </Array>
          </mxGeometry>
        </mxCell>
        <mxCell id="ucMxjGurkrP4E1wEQYcj-91" value="" style="sketch=0;points=[[0,0,0],[0.25,0,0],[0.5,0,0],[0.75,0,0],[1,0,0],[0,1,0],[0.25,1,0],[0.5,1,0],[0.75,1,0],[1,1,0],[0,0.25,0],[0,0.5,0],[0,0.75,0],[1,0.25,0],[1,0.5,0],[1,0.75,0]];outlineConnect=0;fontColor=#232F3E;fillColor=#ED7100;strokeColor=#ffffff;dashed=0;verticalLabelPosition=bottom;verticalAlign=top;align=center;html=1;fontSize=12;fontStyle=0;aspect=fixed;shape=mxgraph.aws4.resourceIcon;resIcon=mxgraph.aws4.ec2;" vertex="1" parent="ucMxjGurkrP4E1wEQYcj-63">
          <mxGeometry x="371" y="326" width="78" height="78" as="geometry" />
        </mxCell>
        <mxCell id="ucMxjGurkrP4E1wEQYcj-102" style="edgeStyle=orthogonalEdgeStyle;rounded=0;orthogonalLoop=1;jettySize=auto;html=1;entryX=1;entryY=0.5;entryDx=0;entryDy=0;entryPerimeter=0;" edge="1" parent="ucMxjGurkrP4E1wEQYcj-63" source="ucMxjGurkrP4E1wEQYcj-88" target="ucMxjGurkrP4E1wEQYcj-90">
          <mxGeometry relative="1" as="geometry" />
        </mxCell>
        <mxCell id="ucMxjGurkrP4E1wEQYcj-103" style="edgeStyle=orthogonalEdgeStyle;rounded=0;orthogonalLoop=1;jettySize=auto;html=1;entryX=0;entryY=0.5;entryDx=0;entryDy=0;entryPerimeter=0;" edge="1" parent="ucMxjGurkrP4E1wEQYcj-63" source="ucMxjGurkrP4E1wEQYcj-88" target="ucMxjGurkrP4E1wEQYcj-91">
          <mxGeometry relative="1" as="geometry" />
        </mxCell>
        <mxCell id="ucMxjGurkrP4E1wEQYcj-8" value="" style="sketch=0;outlineConnect=0;fontColor=#232F3E;gradientColor=none;fillColor=#7AA116;strokeColor=none;dashed=0;verticalLabelPosition=bottom;verticalAlign=top;align=center;html=1;fontSize=12;fontStyle=0;aspect=fixed;pointerEvents=1;shape=mxgraph.aws4.bucket_with_objects;" vertex="1" parent="ucMxjGurkrP4E1wEQYcj-1">
          <mxGeometry x="883.5" y="920" width="75" height="78" as="geometry" />
        </mxCell>
        <mxCell id="ucMxjGurkrP4E1wEQYcj-111" style="edgeStyle=orthogonalEdgeStyle;rounded=0;orthogonalLoop=1;jettySize=auto;html=1;" edge="1" parent="ucMxjGurkrP4E1wEQYcj-1" source="ucMxjGurkrP4E1wEQYcj-9" target="ucMxjGurkrP4E1wEQYcj-110">
          <mxGeometry relative="1" as="geometry" />
        </mxCell>
        <mxCell id="ucMxjGurkrP4E1wEQYcj-9" value="" style="sketch=0;outlineConnect=0;fontColor=#232F3E;gradientColor=none;fillColor=#DD344C;strokeColor=none;dashed=0;verticalLabelPosition=bottom;verticalAlign=top;align=center;html=1;fontSize=12;fontStyle=0;aspect=fixed;pointerEvents=1;shape=mxgraph.aws4.role;" vertex="1" parent="ucMxjGurkrP4E1wEQYcj-1">
          <mxGeometry x="876" y="800" width="78" height="44" as="geometry" />
        </mxCell>
        <mxCell id="ucMxjGurkrP4E1wEQYcj-112" style="edgeStyle=orthogonalEdgeStyle;rounded=0;orthogonalLoop=1;jettySize=auto;html=1;" edge="1" parent="ucMxjGurkrP4E1wEQYcj-1" source="ucMxjGurkrP4E1wEQYcj-39" target="ucMxjGurkrP4E1wEQYcj-8">
          <mxGeometry relative="1" as="geometry" />
        </mxCell>
        <mxCell id="ucMxjGurkrP4E1wEQYcj-39" value="Instance Profile Role" style="text;html=1;align=center;verticalAlign=middle;whiteSpace=wrap;rounded=0;" vertex="1" parent="ucMxjGurkrP4E1wEQYcj-1">
          <mxGeometry x="861" y="844" width="120" height="30" as="geometry" />
        </mxCell>
        <mxCell id="ucMxjGurkrP4E1wEQYcj-40" value="Assets Bucket" style="text;html=1;align=center;verticalAlign=middle;whiteSpace=wrap;rounded=0;" vertex="1" parent="ucMxjGurkrP4E1wEQYcj-1">
          <mxGeometry x="860" y="1010" width="120" height="30" as="geometry" />
        </mxCell>
        <mxCell id="ucMxjGurkrP4E1wEQYcj-92" style="edgeStyle=orthogonalEdgeStyle;rounded=0;orthogonalLoop=1;jettySize=auto;html=1;" edge="1" parent="ucMxjGurkrP4E1wEQYcj-1" source="ucMxjGurkrP4E1wEQYcj-74" target="ucMxjGurkrP4E1wEQYcj-9">
          <mxGeometry relative="1" as="geometry">
            <Array as="points">
              <mxPoint x="180" y="760" />
              <mxPoint x="915" y="760" />
            </Array>
          </mxGeometry>
        </mxCell>
        <mxCell id="ucMxjGurkrP4E1wEQYcj-93" style="edgeStyle=orthogonalEdgeStyle;rounded=0;orthogonalLoop=1;jettySize=auto;html=1;" edge="1" parent="ucMxjGurkrP4E1wEQYcj-1" source="ucMxjGurkrP4E1wEQYcj-75" target="ucMxjGurkrP4E1wEQYcj-9">
          <mxGeometry relative="1" as="geometry">
            <Array as="points">
              <mxPoint x="460" y="760" />
              <mxPoint x="915" y="760" />
            </Array>
          </mxGeometry>
        </mxCell>
        <mxCell id="ucMxjGurkrP4E1wEQYcj-94" style="edgeStyle=orthogonalEdgeStyle;rounded=0;orthogonalLoop=1;jettySize=auto;html=1;" edge="1" parent="ucMxjGurkrP4E1wEQYcj-1" source="ucMxjGurkrP4E1wEQYcj-82" target="ucMxjGurkrP4E1wEQYcj-9">
          <mxGeometry relative="1" as="geometry">
            <Array as="points">
              <mxPoint x="780" y="760" />
              <mxPoint x="915" y="760" />
            </Array>
          </mxGeometry>
        </mxCell>
        <mxCell id="ucMxjGurkrP4E1wEQYcj-95" style="edgeStyle=orthogonalEdgeStyle;rounded=0;orthogonalLoop=1;jettySize=auto;html=1;" edge="1" parent="ucMxjGurkrP4E1wEQYcj-1" source="ucMxjGurkrP4E1wEQYcj-83" target="ucMxjGurkrP4E1wEQYcj-9">
          <mxGeometry relative="1" as="geometry">
            <Array as="points">
              <mxPoint x="1060" y="760" />
              <mxPoint x="915" y="760" />
            </Array>
          </mxGeometry>
        </mxCell>
        <mxCell id="ucMxjGurkrP4E1wEQYcj-96" style="edgeStyle=orthogonalEdgeStyle;rounded=0;orthogonalLoop=1;jettySize=auto;html=1;" edge="1" parent="ucMxjGurkrP4E1wEQYcj-1" source="ucMxjGurkrP4E1wEQYcj-90" target="ucMxjGurkrP4E1wEQYcj-9">
          <mxGeometry relative="1" as="geometry">
            <Array as="points">
              <mxPoint x="1380" y="760" />
              <mxPoint x="915" y="760" />
            </Array>
          </mxGeometry>
        </mxCell>
        <mxCell id="ucMxjGurkrP4E1wEQYcj-97" style="edgeStyle=orthogonalEdgeStyle;rounded=0;orthogonalLoop=1;jettySize=auto;html=1;" edge="1" parent="ucMxjGurkrP4E1wEQYcj-1" source="ucMxjGurkrP4E1wEQYcj-91" target="ucMxjGurkrP4E1wEQYcj-9">
          <mxGeometry relative="1" as="geometry">
            <Array as="points">
              <mxPoint x="1660" y="760" />
              <mxPoint x="915" y="760" />
            </Array>
          </mxGeometry>
        </mxCell>
        <mxCell id="ucMxjGurkrP4E1wEQYcj-110" value="" style="sketch=0;points=[[0,0,0],[0.25,0,0],[0.5,0,0],[0.75,0,0],[1,0,0],[0,1,0],[0.25,1,0],[0.5,1,0],[0.75,1,0],[1,1,0],[0,0.25,0],[0,0.5,0],[0,0.75,0],[1,0.25,0],[1,0.5,0],[1,0.75,0]];points=[[0,0,0],[0.25,0,0],[0.5,0,0],[0.75,0,0],[1,0,0],[0,1,0],[0.25,1,0],[0.5,1,0],[0.75,1,0],[1,1,0],[0,0.25,0],[0,0.5,0],[0,0.75,0],[1,0.25,0],[1,0.5,0],[1,0.75,0]];outlineConnect=0;fontColor=#232F3E;fillColor=#E7157B;strokeColor=#ffffff;dashed=0;verticalLabelPosition=bottom;verticalAlign=top;align=center;html=1;fontSize=12;fontStyle=0;aspect=fixed;shape=mxgraph.aws4.resourceIcon;resIcon=mxgraph.aws4.systems_manager;" vertex="1" parent="ucMxjGurkrP4E1wEQYcj-1">
          <mxGeometry x="600" y="920" width="78" height="78" as="geometry" />
        </mxCell>
      </root>
    </mxGraphModel>
  </diagram>
</mxfile>
